<mxfile host="app.diagrams.net" modified="2023-12-05T12:01:50.802Z" agent="Mozilla/5.0 (Windows NT 6.1; Win64; x64; rv:109.0) Gecko/20100101 Firefox/115.0" version="22.1.5" etag="b8ZtsAFYPiKnmBmFtbPR" type="github">
  <diagram name="Страница — 1" id="lmpTTu_imnhgLJobrgKg">
    <mxGraphModel>
      <root>
        <mxCell id="0" />
        <mxCell id="1" parent="0" />
      </root>
    </mxGraphModel>
  </diagram>
</mxfile>
